<svg data-v-0dd9719b="" version="1.0" xmlns="http://www.w3.org/2000/svg" xmlns:xlink="http://www.w3.org/1999/xlink" width="100%" height="100%" viewBox="0 0 340.000000 250.000000" preserveAspectRatio="xMidYMid meet" color-interpolation-filters="sRGB" style="margin: auto;"> <rect data-v-0dd9719b="" x="0" y="0" width="100%" height="100%" fill="#fff" fill-opacity="1" class="background"></rect> <rect data-v-0dd9719b="" x="0" y="0" width="100%" height="100%" fill="url(#watermark)" fill-opacity="1" class="watermarklayer"></rect> <g data-v-0dd9719b="" fill="#26333b" class="icon-text-wrapper icon-svg-group iconsvg" transform="translate(47.29499816894531,90.06916427612305)"><g class="iconsvg-imagesvg" transform="translate(0,0)"><g><rect fill="#26333b" fill-opacity="0" stroke-width="2" x="0" y="0" width="60.00000000000001" height="69.86167388570631" class="image-rect"></rect> <svg x="0" y="0" width="60.00000000000001" height="69.86167388570631" filtersec="colorsb8614043962" class="image-svg-svg primary" style="overflow: visible;"><svg xmlns="http://www.w3.org/2000/svg" viewBox="0 0 284.79998779296875 331.6116638183594"><g><g fill-rule="evenodd"><path d="M284.75 206.19c0 53.87-22.93 110.13-79.83 121.21a236.64 236.64 0 0 1-45.34 4.21H32.18V100.54C49.08 111 69.25 116.33 90 119v164.79c23.74 0 69.58 3.15 95.07-2.11 36.68-7.56 39.21-57 39.21-87 0-22.29-.3-50.93-14.35-69.51 49.41 8.18 74.87 26.67 74.87 81.05" fill="#26333b"></path><path d="M0 0c0 102.41 73.46 107.93 149.11 107.55 49.47-.24 101.16 9.23 130.73 33.53-7.84-37.34-88.33-61.86-144.21-62.93 46.93-2.47 117.45 12.85 137.12 42.24C233.1 4.12 46.26 89.77 0 0" fill="#8fc740"></path></g></g></svg></svg> <!----></g></g> <g transform="translate(67,7.006771087646484)"><g data-gra="path-name" fill-rule="" class="tp-name iconsvg-namesvg" transform="translate(0,0)"><g transform="scale(1)"><g><path d="M19.86-36.04L19.86-36.04Q25.14-36.04 25.14-35.33L25.14-35.33Q25.14-34.98 24.79-34.45L24.79-34.45Q23.91-32.87 23.91-30.23L23.91-30.23 23.91-24.08 32.17-24.08Q38.5-24.08 40.61-24.43L40.61-24.43 40.61-20.04Q38.14-20.39 32.17-20.39L32.17-20.39 24.61-20.39Q27.77-4.22 42.71-0.88L42.71-0.88Q40.25 0.18 38.14 3.34L38.14 3.34Q24.79-3.87 22.68-15.82L22.68-15.82Q21.09-2.46 5.8 4.04L5.8 4.04Q4.39 2.11 1.41 0.35L1.41 0.35Q18.11-3.69 20.04-20.39L20.04-20.39 10.55-20.39Q5.45-20.39 3.52-20.04L3.52-20.04 3.52-24.43Q5.63-24.08 10.72-24.08L10.72-24.08 20.21-24.08 20.21-31.64Q20.21-33.93 19.86-35.68L19.86-35.68Q19.86-35.86 19.86-36.04ZM69.43-35.86L69.43-35.86Q73.48-35.16 74.18-34.45L74.18-34.45Q74-34.28 73.65-33.93L73.65-33.93Q72.42-32.87 71.19-30.23L71.19-30.23 78.93-30.23Q82.44-30.23 85.08-30.59L85.08-30.59Q85.61-30.59 85.61-30.59L85.61-30.59 85.61-26.89Q85.43-26.89 85.08-26.89L85.08-26.89Q82.44-27.25 78.93-27.25L78.93-27.25 69.61-27.25Q68.38-25.14 66.62-22.32L66.62-22.32Q65.39-20.39 64.86-19.51L64.86-19.51 71.72-19.51Q71.72-21.8 71.19-24.79L71.19-24.79Q71.19-25.31 71.19-25.49L71.19-25.49Q74.88-25.49 75.94-24.96L75.94-24.96Q75.94-24.79 75.76-24.43L75.76-24.43Q75.06-22.32 75.06-19.69L75.06-19.69 78.05-19.69Q81.56-19.69 84.02-20.04L84.02-20.04Q84.38-20.04 84.55-20.04L84.55-20.04 84.55-16.17Q84.38-16.17 83.67-16.17L83.67-16.17Q81.39-16.52 78.22-16.52L78.22-16.52 75.06-16.52 75.06-11.43 79.63-11.43Q83.14-11.43 85.78-11.78L85.78-11.78Q86.13-11.78 86.13-11.78L86.13-11.78 86.13-7.73Q86.13-7.73 85.61-7.73L85.61-7.73Q82.97-8.09 79.63-8.09L79.63-8.09 75.06-8.09Q75.06-4.92 75.41-2.64L75.41-2.64Q75.41-2.11 75.41-2.11L75.41-2.11 71.19-2.11Q71.19-2.11 71.19-2.46L71.19-2.46Q71.54-4.75 71.54-8.09L71.54-8.09 65.57-8.09Q61-8.09 58.89-7.73L58.89-7.73 58.89-11.78Q59.06-11.78 59.41-11.78L59.41-11.78Q61.88-11.43 65.39-11.43L65.39-11.43 71.72-11.43 71.72-16.35Q70.49-16.35 68.38-16.17L68.38-16.17Q62.58-16.17 60.64-15.82L60.64-15.82 59.94-19.86Q61.88-18.81 65.92-27.25L65.92-27.25 64.34-27.25Q61.88-27.25 59.41-26.89L59.41-26.89Q58.89-26.89 58.71-26.89L58.71-26.89 58.71-30.59Q60.29-30.23 64.16-30.23L64.16-30.23 67.32-30.23Q69.08-34.28 69.43-35.86ZM50.45-32.87L54.67-33.75Q55.9-31.11 57.3-25.49L57.3-25.49 52.91-24.61Q51.68-30.59 50.45-32.87L50.45-32.87ZM47.81-16.52L47.81-20.92Q47.81-20.92 47.99-20.92L47.99-20.92Q49.75-20.57 52.21-20.57L52.21-20.57Q55.2-20.57 56.78-20.92L56.78-20.92Q56.43-19.69 56.43-16.17L56.43-16.17 56.43-4.92Q62.4-1.23 68.55-0.88L68.55-0.88Q74.88-0.18 87.54-2.11L87.54-2.11Q85.78 0 85.43 2.46L85.43 2.46Q72.95 2.81 68.73 2.29L68.73 2.29Q64.34 2.11 60.47 0.53L60.47 0.53Q59.77 0.18 58.36-0.35L58.36-0.35Q56.07-1.76 54.84-1.76L54.84-1.76Q52.56-1.41 50.45 2.29L50.45 2.29 46.76 0Q50.98-3.52 52.91-4.75L52.91-4.75 52.91-17.05 52.38-17.05Q50.27-17.05 48.34-16.7L48.34-16.7Q47.99-16.52 47.81-16.52L47.81-16.52ZM117.25-36.39L117.25-36.39Q122.17-36.04 122.34-35.51L122.34-35.51Q122.34-35.33 121.99-34.98L121.99-34.98Q121.11-33.57 121.11-32.17L121.11-32.17 121.11-29.18 124.98-29.18Q127.79-29.18 130.43-29.71L130.43-29.71Q130.96-29.71 130.96-29.71L130.96-29.71 130.96-25.49Q130.96-25.49 130.43-25.49L130.43-25.49Q128.14-25.84 125.33-25.84L125.33-25.84 121.11-25.84 121.11-20.04 127.09-20.04Q130.08-20.04 132.36-20.39L132.36-20.39Q132.89-20.39 132.89-20.39L132.89-20.39 132.89-16.35Q132.71-16.35 132.19-16.52L132.19-16.52Q129.9-16.88 127.09-16.88L127.09-16.88 121.11-16.88 121.11-1.93 126.56-1.93 126.56-9.67Q126.56-9.84 126.56-10.2L126.56-10.2Q126.74-12.3 126.39-13.01L126.39-13.01Q130.78-13.01 130.96-12.48L130.96-12.48Q130.96-12.3 130.78-11.95L130.78-11.95Q130.08-10.9 130.08-9.49L130.08-9.49 130.08-2.11Q130.08 0.88 130.43 3.16L130.43 3.16Q130.43 3.69 130.43 3.69L130.43 3.69 126.39 3.69Q126.56 3.34 126.56 1.05L126.56 1.05 114.43 1.05Q108.98 1.05 108.63 1.23L108.63 1.23Q108.98-0.35 108.98-3.52L108.98-3.52 108.98-9.67Q108.98-12.13 108.81-13.18L108.81-13.18Q113.55-12.83 113.38-12.48L113.38-12.48Q113.38-12.48 113.2-12.13L113.2-12.13Q112.15-10.9 112.15-9.84L112.15-9.84 112.15-1.93 117.6-1.93 117.6-16.88 112.5-16.88Q109.16-16.88 106.7-16.52L106.7-16.52Q106.35-16.52 106.35-16.52L106.35-16.52 106.35-20.39Q106.35-20.39 106.7-20.39L106.7-20.39Q109.16-20.04 112.68-20.04L112.68-20.04 117.6-20.04 117.6-25.84 114.43-25.84Q111.45-25.84 109.16-25.49L109.16-25.49Q108.63-25.49 108.63-25.49L108.63-25.49 108.63-29.53Q108.63-29.53 109.16-29.53L109.16-29.53Q111.62-29.18 114.43-29.18L114.43-29.18 117.6-29.18 117.6-32.17Q117.6-33.93 117.25-35.68L117.25-35.68Q117.25-36.21 117.25-36.39ZM93.87-33.93L93.87-33.93Q95.63-33.57 99.49-33.57L99.49-33.57 101.78-33.57Q105.82-33.57 108.46-34.1L108.46-34.1Q106.35-27.42 102.66-20.04L102.66-20.04Q107.4-14.77 107.58-9.67L107.58-9.67Q108.28-3.69 99.84-2.29L99.84-2.29Q98.79-4.92 97.73-6.33L97.73-6.33 97.73-2.11Q97.73 0.88 98.09 3.34L98.09 3.34Q98.09 3.87 98.09 4.04L98.09 4.04 93.87 4.04Q93.87 4.04 93.87 3.69L93.87 3.69Q94.22 1.23 94.22-1.93L94.22-1.93 94.22-27.95Q94.22-32.17 93.87-33.93ZM103.36-30.41L97.73-30.41 97.73-7.21Q103.18-5.8 103.89-8.61L103.89-8.61Q104.94-13.36 98.96-19.34L98.96-19.34Q101.78-24.96 103.36-30.41L103.36-30.41ZM137.29-28.65L137.29-32.52Q139.04-32.17 143.96-32.17L143.96-32.17 147.83-32.17Q152.05-32.17 153.98-32.52L153.98-32.52 153.98-28.83Q152.05-29.18 147.48-29.18L147.48-29.18 147.48-20.74Q152.23-20.74 153.11-21.09L153.11-21.09 153.11-17.4Q151.7-17.58 149.41-17.58L149.41-17.58Q148.36-17.58 147.48-17.58L147.48-17.58 147.48-7.73Q149.77-8.26 153.46-9.84L153.46-9.84Q153.28-7.56 153.46-6.15L153.46-6.15Q141.15-2.29 138.69-0.7L138.69-0.7Q138.52-0.7 138.52-0.7L138.52-0.7Q138.34-1.23 137.64-2.99L137.64-2.99Q136.76-4.75 136.58-5.1L136.58-5.1Q136.58-4.92 143.96-6.86L143.96-6.86 143.96-17.58Q139.04-17.58 137.81-17.23L137.81-17.23 137.81-20.92Q139.75-20.57 143.96-20.57L143.96-20.57 143.96-29Q137.99-29 137.29-28.65L137.29-28.65ZM159.43-36.74L159.43-36.74Q162.95-36.21 164-35.51L164-35.51Q164-35.51 163.83-34.8L163.83-34.8Q162.95-32.87 162.42-30.59L162.42-30.59 165.41-30.59Q170.51-30.59 173.14-30.94L173.14-30.94Q172.97-30.94 173.32-30.94L173.32-30.94Q173.14-30.59 172.97-29.88L172.97-29.88Q172.79-29.36 171.04-24.08L171.04-24.08Q170.16-21.97 168.75-17.93L168.75-17.93Q168.22-16.35 168.05-15.82L168.05-15.82Q171.91-4.57 179.82 0.35L179.82 0.35Q178.24 1.23 176.66 4.04L176.66 4.04Q169.98-1.93 166.29-11.78L166.29-11.78Q161.72-2.29 152.58 4.39L152.58 4.39Q151.52 2.81 148.89 1.41L148.89 1.41Q163.3-6.33 167.87-27.42L167.87-27.42 161.54-27.42Q158.73-18.81 156.09-14.59L156.09-14.59Q154.86-15.47 152.4-16L152.4-16Q158.03-23.55 159.43-36.74Z" transform="translate(-1.409999966621399, 36.7400016784668)"></path></g> <!----> <!----> <!----> <!----> <!----> <!----> <!----></g></g> <g data-gra="path-slogan" fill-rule="" class="tp-slogan iconsvg-slogansvg" fill="#26333b" transform="translate(5,47.130001068115234)"><rect x="0" height="1" y="3.8600001335144043" width="42.2550048828125"></rect> <rect height="1" y="3.8600001335144043" width="42.2550048828125" x="126.15499877929688"></rect> <g transform="translate(45.2550048828125,0)"><g transform="scale(1)"><path d="M4.41 0L0.94 0L0.94-8.58L4.45-8.58Q7.92-8.39 8.06-4.41L8.06-4.41Q7.88-0.09 4.41 0L4.41 0ZM4.27-7.64L2.11-7.64L2.11-0.98L4.36-0.98Q6.80-1.13 6.89-4.31L6.89-4.31Q6.84-7.55 4.27-7.64L4.27-7.64ZM15.19 0L14.34-2.48L10.88-2.48L9.98 0L8.81 0L12.05-8.58L13.36-8.58L16.45 0L15.19 0ZM12.61-7.31L11.25-3.52L13.92-3.52L12.66-7.31L12.61-7.31ZM17.48-8.58L18.66-8.58L18.66-1.03L23.02-1.03L23.02 0L17.48 0L17.48-8.58ZM24.33-8.58L25.50-8.58L25.50 0L24.33 0L24.33-8.58ZM33.14 0L32.30-2.48L28.83-2.48L27.94 0L26.77 0L30-8.58L31.31-8.58L34.41 0L33.14 0ZM30.56-7.31L29.20-3.52L31.88-3.52L30.61-7.31L30.56-7.31ZM36.84-8.58L41.16-1.64L41.16-8.58L42.28-8.58L42.28 0L40.97 0L36.61-6.94L36.56-6.94L36.56 0L35.44 0L35.44-8.58L36.84-8.58ZM47.39-8.58L48.56-8.58L48.56-1.03L52.92-1.03L52.92 0L47.39 0L47.39-8.58ZM59.72-3.19L59.72-8.58L60.89-8.58L60.89-3.05Q60.75 0.05 57.38 0.14L57.38 0.14Q54.23 0.05 54.09-2.86L54.09-2.86L54.09-8.58L55.27-8.58L55.27-3.19Q55.31-0.84 57.42-0.80L57.42-0.80Q59.72-0.84 59.72-3.19L59.72-3.19ZM61.97-1.92L61.97-2.77L63.05-2.77L63.05-2.16Q63.05-0.75 64.36-0.75L64.36-0.75Q65.72-0.75 65.72-2.25L65.72-2.25L65.72-8.58L66.89-8.58L66.89-2.30Q66.84 0.09 64.41 0.14L64.41 0.14Q62.11 0.09 61.97-1.92L61.97-1.92ZM68.86-8.58L70.03-8.58L70.03 0L68.86 0L68.86-8.58ZM77.67-3.19L77.67-8.58L78.84-8.58L78.84-3.05Q78.70 0.05 75.33 0.14L75.33 0.14Q72.19 0.05 72.05-2.86L72.05-2.86L72.05-8.58L73.22-8.58L73.22-3.19Q73.27-0.84 75.38-0.80L75.38-0.80Q77.67-0.84 77.67-3.19L77.67-3.19Z" transform="translate(-0.9375, 8.578125)"></path></g></g></g></g></g><defs v-gra="od"></defs></svg>